<svg width="190" height="74" viewBox="0 0 190 74" fill="none" xmlns="http://www.w3.org/2000/svg">
<path fill-rule="evenodd" clip-rule="evenodd" d="M83.0044 0.531148C81.5824 0.902148 82.1634 1.84114 86.0044 5.38714C88.6244 7.80514 92.1174 10.1531 93.7674 10.6041C95.4174 11.0551 105.286 11.1801 115.698 10.8821L134.629 10.3391L122.698 6.08415C113.204 2.69815 108.52 1.62615 99.7674 0.835149C88.3394 -0.197851 85.9634 -0.240852 83.0044 0.531148ZM61.4114 3.41214C58.4654 4.20414 55.6724 5.08915 55.2044 5.37815C54.7364 5.66715 55.7954 7.94815 57.5564 10.4471C60.3894 14.4661 61.0924 14.9241 63.6384 14.4151C65.2214 14.0981 70.9614 13.8391 76.3924 13.8391C81.8234 13.8391 86.2674 13.4242 86.2674 12.9162C86.2674 10.9292 80.6444 5.46114 76.8084 3.71914C72.0114 1.54014 68.6214 1.47214 61.4114 3.41214ZM42.6274 8.18615C39.4044 10.5771 35.8674 13.5981 34.7674 14.8991C33.6674 16.2001 35.4884 15.0321 38.8134 12.3021C42.1394 9.57214 45.9644 6.57515 47.3134 5.64115C48.6634 4.70815 49.4794 3.92015 49.1274 3.89115C48.7754 3.86315 45.8504 5.79515 42.6274 8.18615ZM48.2674 8.78515C44.1734 10.9641 38.5934 16.5822 41.5994 15.4992C42.6064 15.1362 46.5444 14.8391 50.3494 14.8391C54.2204 14.8391 57.2674 14.4061 57.2674 13.8551C57.2674 13.3131 56.0294 11.5321 54.5174 9.89715L51.7674 6.92315L48.2674 8.78515ZM116.267 13.4231C144.586 16.7491 149.268 18.0611 155.64 24.4531L159.513 28.3391L157.32 23.9921C156.114 21.6011 155.415 19.3581 155.766 19.0061C156.118 18.6551 160.17 18.3611 164.771 18.3531C174.392 18.3371 173.492 17.7451 160.239 15.3721C154.233 14.2961 143.815 13.5541 131.767 13.3441C121.317 13.1611 114.342 13.1971 116.267 13.4231ZM29.2674 18.9281C27.1134 20.6901 27.0714 20.8251 28.9614 19.9011C30.1684 19.3111 31.4324 18.3812 31.7704 17.8342C32.6734 16.3732 32.0674 16.6381 29.2674 18.9281ZM130.267 21.6841C130.267 24.4541 133.682 27.0371 136.851 26.6641C140.455 26.2401 140.919 24.5241 138.132 21.9281C135.247 19.2401 130.267 19.0861 130.267 21.6841ZM142.267 21.4051C142.267 24.1771 144.151 26.6031 147.102 27.6321C150.248 28.7281 151.581 28.2402 152.539 25.6392C152.986 24.4272 152.214 23.3512 149.848 21.8892C145.871 19.4312 142.267 19.2011 142.267 21.4051ZM158.03 20.3921C157.201 21.2411 160.755 27.6741 163.112 29.5891C164.083 30.3781 167.902 30.8391 173.477 30.8391H182.305L181.765 28.0891C181.248 25.4551 181.275 25.4341 182.399 27.5891C183.78 30.2371 185.491 30.6311 184.569 28.0891C183.54 25.2511 181.267 22.2491 181.267 23.7271C181.267 24.4901 180.468 24.0731 179.397 22.7521C177.737 20.7011 176.479 20.3982 168.147 20.0412C162.988 19.8202 158.435 19.9781 158.03 20.3921ZM23.7084 22.3941C21.8444 23.8881 21.8564 23.9061 24.0174 22.8591C25.2554 22.2591 26.2674 21.5591 26.2674 21.3041C26.2674 20.5391 25.7484 20.7601 23.7084 22.3941ZM111.026 28.0891C113.866 31.1201 115.268 35.1151 115.261 40.1541C115.253 46.1191 113.482 51.7152 110.73 54.4672C108.03 57.1672 108.735 57.6001 112.05 55.2781C116.691 52.0281 119.175 42.9232 117.31 35.9972C116.174 31.7812 111.901 25.8391 110.004 25.8391C109.407 25.8391 109.867 26.8511 111.026 28.0891ZM41.2674 33.6171C41.2674 34.1671 42.1044 35.6511 43.1264 36.9141C44.8974 39.1001 45.6994 39.2222 59.8764 39.4562L74.7674 39.7031L59.8864 38.4692C46.3274 37.3442 44.8404 37.0302 43.1364 34.9262C42.1084 33.6562 41.2674 33.0671 41.2674 33.6171ZM52.0514 42.5772C54.9564 42.7802 59.4564 42.7781 62.0514 42.5731C64.6454 42.3671 62.2674 42.2022 56.7674 42.2042C51.2674 42.2072 49.1454 42.3752 52.0514 42.5772ZM122.457 46.5891L122.767 50.3391L128.767 50.9802C138.439 52.0142 172.157 51.8881 179.762 50.7891C186.869 49.7621 190.557 47.7291 188.694 45.8661C188.044 45.2161 186.349 45.2921 183.737 46.0891C181.179 46.8681 172.907 47.2742 160.48 47.2302C142.341 47.1652 141.02 47.0321 138.271 45.0001C135.97 43.2991 133.944 42.8391 128.747 42.8391H122.146L122.457 46.5891ZM36.0174 48.5011C36.7054 48.7791 37.8304 48.7791 38.5174 48.5011C39.2054 48.2241 38.6424 47.9972 37.2674 47.9972C35.8924 47.9972 35.3304 48.2241 36.0174 48.5011ZM118.417 49.1892C118.334 50.2062 116.737 52.5692 114.867 54.4392L111.467 57.8391H114.902C118.324 57.8391 123.267 55.4071 123.267 53.7241C123.267 53.2371 122.397 52.8391 121.333 52.8391C119.992 52.8391 119.272 51.9971 118.983 50.0891C118.754 48.5771 118.499 48.1722 118.417 49.1892ZM47.7674 50.3841C52.1674 51.1011 60.0424 51.6631 65.2674 51.6321L74.7674 51.5751L60.7674 50.2961C42.9734 48.6701 37.4914 48.7071 47.7674 50.3841ZM155.267 55.8391C160.108 59.6271 167.019 59.6181 172.787 55.8171L175.767 53.8521L164.267 53.8682L152.767 53.8832L155.267 55.8391ZM43.7264 61.9061C43.3634 62.4921 43.3074 63.2122 43.6004 63.5062C44.3174 64.2222 46.2674 62.9601 46.2674 61.7801C46.2674 60.5021 44.5414 60.5871 43.7264 61.9061ZM0.72844 62.6041C0.14544 63.0161 -0.143557 65.6201 0.070443 68.5221C0.360443 72.4711 0.786445 73.5772 1.85944 73.1652C2.63344 72.8682 3.28544 71.6612 3.30744 70.4822C3.34344 68.5362 3.48344 68.5892 4.82044 71.0532C5.74844 72.7622 6.83844 73.5571 7.76644 73.2011C9.04244 72.7111 9.05044 72.3671 7.82244 70.6141C6.76044 69.0981 6.67844 68.1541 7.49444 66.8471C9.13944 64.2131 7.73844 61.8371 4.54844 61.8541C3.01944 61.8631 1.29944 62.2001 0.72844 62.6041ZM48.0174 67.5891C47.7434 70.7511 47.6944 73.5341 47.9094 73.7721C48.9354 74.9091 50.3804 71.6792 50.9334 67.0122C51.4334 62.7872 51.2684 61.8391 50.0304 61.8391C48.9104 61.8391 48.3854 63.3381 48.0174 67.5891ZM52.8004 67.4231C52.4164 70.4941 52.2654 73.1701 52.4634 73.3691C53.6094 74.5151 55.0614 71.6591 55.6544 67.0891C56.1984 62.9021 56.0494 61.8391 54.9174 61.8391C53.9444 61.8391 53.2784 63.5951 52.8004 67.4231ZM71.1834 62.0891C71.1374 62.2261 71.0254 64.9271 70.9334 68.0891C70.7714 73.7031 71.9334 75.8341 72.9774 71.8391C73.2654 70.7391 73.8674 69.8391 74.3164 69.8391C74.7654 69.8391 75.4184 70.7391 75.7674 71.8391C76.1164 72.9391 76.7954 73.8391 77.2754 73.8391C78.9094 73.8391 79.4444 71.7572 78.1954 70.2532C77.2534 69.1182 77.2334 68.4731 78.1094 67.5971C79.7674 65.9391 79.5374 63.1571 77.6854 62.4461C76.1424 61.8541 71.3504 61.5911 71.1834 62.0891ZM112.976 62.5891C112.752 63.0011 112.478 65.6961 112.368 68.5761C112.202 72.9421 112.427 73.7152 113.718 73.2192C114.57 72.8922 115.267 72.0472 115.267 71.3402C115.267 70.6342 116.362 69.7812 117.7 69.4452C120.561 68.7272 121.944 65.3601 120.227 63.2911C118.977 61.7851 113.693 61.2731 112.976 62.5891ZM145.267 63.3391C145.267 64.1641 144.457 64.8391 143.467 64.8391C139.753 64.8391 137.668 70.3182 140.517 72.5922C142.486 74.1632 146.545 73.3752 147.373 71.2622C148.776 67.6812 148.4 61.8391 146.767 61.8391C145.942 61.8391 145.267 62.5141 145.267 63.3391ZM169.116 64.5891C168.835 67.8541 169.426 72.3352 170.252 73.1932C170.704 73.6622 171.905 73.5632 172.921 72.9732C174.619 71.9862 174.627 71.8971 173.017 71.8691C171.959 71.8511 171.267 71.0682 171.267 69.8892C171.267 68.8162 172.055 67.4802 173.017 66.9192C173.988 66.3532 174.211 65.8861 173.517 65.8691C172.83 65.8531 172.267 65.1641 172.267 64.3391C172.267 62.2251 169.3 62.4611 169.116 64.5891ZM5.69744 64.7261C5.99844 65.2131 5.57544 66.1682 4.75644 66.8482C3.51744 67.8772 3.26744 67.7281 3.26744 65.9611C3.26744 63.8161 4.68844 63.0931 5.69744 64.7261ZM76.2674 65.2801C76.2674 66.0731 75.8174 66.9991 75.2674 67.3391C74.7174 67.6791 74.2674 67.0302 74.2674 65.8982C74.2674 64.7662 74.7174 63.8391 75.2674 63.8391C75.8174 63.8391 76.2674 64.4871 76.2674 65.2801ZM117.484 67.0221C115.956 68.5501 114.829 67.4232 115.676 65.2152C116.176 63.9112 116.61 63.7821 117.5 64.6721C118.389 65.5611 118.386 66.1201 117.484 67.0221ZM12.0174 65.9192C9.61344 67.3202 9.78644 71.5112 12.3054 72.8592C15.1284 74.3702 18.1444 73.1771 18.8764 70.2591C19.9664 65.9191 16.1564 63.5082 12.0174 65.9192ZM21.4184 66.1571C20.6134 67.1281 20.7134 68.0312 21.8004 69.5832C23.1294 71.4802 23.1014 71.7321 21.5224 72.1101C19.8794 72.5031 19.8834 72.5801 21.5954 73.3211C22.8014 73.8431 23.9684 73.5671 25.0284 72.5071C26.5024 71.0331 26.4834 70.7352 24.7954 68.8702C23.1034 67.0002 23.0934 66.8391 24.6714 66.8391C25.6144 66.8391 26.1074 66.3891 25.7674 65.8391C24.8994 64.4351 22.7144 64.5951 21.4184 66.1571ZM27.6144 66.3762C27.2904 67.2222 27.8244 68.7972 28.8014 69.8762C30.5054 71.7602 30.5024 71.8391 28.7224 71.8391C27.4464 71.8391 27.1894 72.1612 27.9004 72.8722C29.2734 74.2452 32.2674 73.0252 32.2674 71.0922C32.2674 70.2492 31.4804 68.9621 30.5174 68.2311C28.8504 66.9661 28.8504 66.9011 30.5174 66.8711C32.9854 66.8261 32.7104 64.8391 30.2364 64.8391C29.1184 64.8391 27.9394 65.5312 27.6144 66.3762ZM34.7344 68.5891C35.8794 74.8231 37.6314 74.9882 40.6244 69.1462C41.7254 66.9952 41.9134 65.7382 41.1974 65.2962C40.0064 64.5602 39.9654 64.5901 38.5344 67.2521C37.5434 69.0941 37.4804 69.0851 36.8194 67.0021C35.6274 63.2471 33.9824 64.4991 34.7344 68.5891ZM43.8174 66.0891C42.6554 69.8361 42.6434 72.8391 43.7894 72.8391C45.0424 72.8391 46.2284 69.8321 46.2534 66.5891C46.2694 64.5891 44.4014 64.2051 43.8174 66.0891ZM58.4674 66.0391C55.4484 69.0581 58.9304 74.9502 62.8454 73.4472C65.0334 72.6082 64.5304 70.9582 62.2674 71.5492C61.1494 71.8422 60.2674 71.5802 60.2674 70.9562C60.2674 70.3412 61.1194 69.8391 62.1604 69.8391C64.4464 69.8391 65.5434 67.5151 63.9894 65.9611C62.5234 64.4951 59.9744 64.5321 58.4674 66.0391ZM82.4674 66.0391C80.9014 67.6051 80.9294 71.3152 82.5174 72.6282C83.2054 73.1962 85.0054 73.4241 86.5174 73.1341C88.9544 72.6661 89.2674 72.1641 89.2674 68.7221C89.2674 65.1361 89.0534 64.8391 86.4674 64.8391C84.9274 64.8391 83.1274 65.3791 82.4674 66.0391ZM91.8374 67.0431C90.5214 68.9221 90.4934 69.5471 91.6524 71.2931C93.1214 73.5051 96.3634 74.0521 96.9834 72.1921C97.1934 71.5611 96.5554 71.1111 95.5664 71.1921C92.7824 71.4201 93.2154 67.4171 96.0174 67.0191C99.0484 66.5891 98.8934 64.8391 95.8244 64.8391C94.4394 64.8391 92.7124 65.7941 91.8374 67.0431ZM100.505 66.0012C97.4504 69.0562 100.255 74.6121 104.219 73.3541C106.862 72.5161 106.906 70.8592 104.267 71.5492C103.149 71.8422 102.267 71.5802 102.267 70.9562C102.267 70.3412 103.198 69.8391 104.337 69.8391C105.911 69.8391 106.33 69.3001 106.087 67.5891C105.722 65.0231 102.422 64.0842 100.505 66.0012ZM122.809 65.6312C122.511 65.9292 122.267 67.9522 122.267 70.1282C122.267 73.5312 122.477 73.9101 123.767 72.8391C124.592 72.1541 125.267 70.7351 125.267 69.6851C125.267 68.6351 125.942 67.5171 126.767 67.2011C127.592 66.8841 128.267 66.2792 128.267 65.8572C128.267 64.9892 123.642 64.7972 122.809 65.6312ZM130.467 66.0391C128.822 67.6841 128.958 71.3382 130.719 72.7992C132.562 74.3292 135.959 73.2832 137.303 70.7712C139.519 66.6312 133.82 62.6861 130.467 66.0391ZM149.809 68.4692C148.974 72.9202 149.963 74.0501 153.991 73.2441C157.046 72.6331 158.222 70.7752 158.253 66.5062C158.275 63.6522 155.829 65.1541 155.267 68.3391C154.992 69.8981 154.149 71.3802 153.393 71.6312C152.349 71.9782 152.121 71.2171 152.442 68.4641C153.009 63.6111 150.719 63.6162 149.809 68.4692ZM160.838 66.4101C159.974 67.2751 159.267 68.5931 159.267 69.3391C159.267 71.3081 162.253 73.9892 164.056 73.6392C166.241 73.2152 166.735 71.0141 164.604 71.1921C161.992 71.4101 161.615 67.8221 164.18 67.1511C165.328 66.8511 166.267 66.2081 166.267 65.7221C166.267 64.2551 162.518 64.7301 160.838 66.4101ZM175.614 66.3762C175.29 67.2222 175.824 68.7972 176.801 69.8762C178.505 71.7602 178.502 71.8391 176.722 71.8391C175.446 71.8391 175.189 72.1612 175.9 72.8722C177.273 74.2452 180.267 73.0252 180.267 71.0922C180.267 70.2492 179.479 68.9621 178.517 68.2311C176.85 66.9661 176.85 66.9011 178.517 66.8711C180.985 66.8261 180.71 64.8391 178.236 64.8391C177.118 64.8391 175.939 65.5312 175.614 66.3762ZM16.2674 69.3391C16.2674 70.8951 15.7004 71.8391 14.7674 71.8391C13.8344 71.8391 13.2674 70.8951 13.2674 69.3391C13.2674 67.7831 13.8344 66.8391 14.7674 66.8391C15.7004 66.8391 16.2674 67.7831 16.2674 69.3391ZM62.2674 67.2801C62.2674 67.5231 61.8174 67.9991 61.2674 68.3391C60.7174 68.6791 60.2674 68.4802 60.2674 67.8982C60.2674 67.3162 60.7174 66.8391 61.2674 66.8391C61.8174 66.8391 62.2674 67.0371 62.2674 67.2801ZM86.3424 68.1141C86.3014 68.5131 86.2674 69.5141 86.2674 70.3391C86.2674 71.1641 85.8174 71.8391 85.2674 71.8391C84.7174 71.8391 84.2674 70.6772 84.2674 69.2562C84.2674 67.8352 84.7514 66.8342 85.3424 67.0312C85.9334 67.2282 86.3834 67.7151 86.3424 68.1141ZM104.267 67.2801C104.267 67.5231 103.817 67.9991 103.267 68.3391C102.717 68.6791 102.267 68.4802 102.267 67.8982C102.267 67.3162 102.717 66.8391 103.267 66.8391C103.817 66.8391 104.267 67.0371 104.267 67.2801ZM134.931 68.4062C135.765 70.5782 133.649 72.6211 132.134 71.1061C130.854 69.8261 131.647 66.8391 133.267 66.8391C133.852 66.8391 134.6 67.5442 134.931 68.4062ZM145.087 69.0111C144.615 72.2121 142.267 72.5551 142.267 69.4221C142.267 67.7421 142.816 66.8391 143.837 66.8391C144.879 66.8391 145.299 67.5681 145.087 69.0111Z" fill="black"/>
</svg>
